# xmcd CD database file
#
# Track frame offsets:
#	150
#	17784
#	40204
#	53431
#	74406
#	89305
#	107281
#	119118
#	133527
#	152079
#	166846
#	186830
#	201466
#	216707
#	235690
#
# Disc length: 3370 seconds
#
# Revision: 0
# Processed by: cddbd v1.4PL0 Copyright (c) Steve Scherf et al.
# Submitted via: CDex 1.50
#
DISCID=d30d280f
DTITLE=Alan Kaplan - Lonely Town
DYEAR=2001
DGENRE=Jazz
TTITLE0=Ebb Tide
TTITLE1=Angel Eyes
TTITLE2=Their Hearts Were Full of Spring
TTITLE3=I Think of You
TTITLE4=Guess I'll Hang My Tears Out to Dry
TTITLE5=Only the Lonely
TTITLE6=Nancy
TTITLE7=I Fall In Love Too Easily
TTITLE8=You'll Never Know
TTITLE9=Emily
TTITLE10=The Night We Called it a Day
TTITLE11=My One and Only Love
TTITLE12=Lonely Town
TTITLE13=Try to Remember
TTITLE14=Don't Like Goodbyes
EXTD=YEAR: 2001
EXTT0=
EXTT1=
EXTT2=
EXTT3=
EXTT4=
EXTT5=
EXTT6=
EXTT7=
EXTT8=
EXTT9=
EXTT10=
EXTT11=
EXTT12=
EXTT13=
EXTT14=
PLAYORDER=
